<?xml version="1.0" encoding="utf-8"?>
<!-- Generator: Adobe Illustrator 22.0.1, SVG Export Plug-In . SVG Version: 6.00 Build 0)  -->
<svg version="1.1" id="Layer_1" xmlns="http://www.w3.org/2000/svg" xmlns:xlink="http://www.w3.org/1999/xlink" x="0px" y="0px"
	 viewBox="0 0 63.9 39.4" style="enable-background:new 0 0 63.9 39.4;" xml:space="preserve">
<style type="text/css">
	.st0{fill:#232323;}
</style>
<g id="graduation-cap" transform="translate(651.281 1460.206)">
	<g id="Group_27" transform="translate(0 0)">
		<g id="Group_26">
			<path id="Path_199" class="st0" d="M-593.2-1433.9l0-6.1l5.9-3.3l-32-16.9l-31.9,17.2l12.8,7.3l0,4.4v0.3l0.1-0.1
				c-0.1,0.2-0.2,0.4-0.2,0.6c0,2.1,8.7,3.8,19.3,3.8c10.7-0.1,19.3-1.9,19.3-4c0-0.2-0.1-0.4-0.2-0.6l0.1,0.1v-0.3l0-4.4l5.5-3.4
				l0,5.4c-0.6,0.3-1,0.9-1,1.6c0,0.9,0.8,1.7,1.7,1.7c0.9,0,1.7-0.8,1.7-1.7C-592.2-1433-592.6-1433.7-593.2-1433.9z
				 M-619.3-1428.1c-9.5,0.1-17.2-1-17.2-2.3c0-1.3,7.7-2.4,17.1-2.5c9.5,0,17.2,1,17.2,2.3
				C-602.1-1429.3-609.8-1428.2-619.3-1428.1z M-600.5-1439.4c-1.3-1.3-5.9-4.9-18.8-4.8c-13,0.1-17.5,3.7-18.8,5l0-1.3
				c0,0,3.7-5.6,18.8-5.7c15.1-0.1,18.8,5.5,18.8,5.5L-600.5-1439.4z M-595.2-1430.3l-0.7,9.5c2-3.2,3.7-2,3.7-2l0-7.5
				C-594.4-1429.5-595.2-1430.3-595.2-1430.3L-595.2-1430.3z"/>
		</g>
	</g>
</g>
</svg>
