<?xml version="1.0" encoding="utf-8"?>
<!-- Generator: Adobe Illustrator 22.0.1, SVG Export Plug-In . SVG Version: 6.00 Build 0)  -->
<svg version="1.1" id="Layer_1" xmlns="http://www.w3.org/2000/svg" xmlns:xlink="http://www.w3.org/1999/xlink" x="0px" y="0px"
	 viewBox="0 0 65.7 38.6" style="enable-background:new 0 0 65.7 38.6;" xml:space="preserve">
<style type="text/css">
	.st0{fill:#232323;}
</style>
<g id="about-us" transform="translate(1091.52 1460.966)">
	<g id="Group_28" transform="translate(0 0)">
		<path id="Path_200" class="st0" d="M-1058.7-1443.5c4.8,0,8.8-3.9,8.8-8.7s-3.9-8.8-8.7-8.8s-8.8,3.9-8.8,8.7c0,0,0,0,0,0
			C-1067.4-1447.4-1063.5-1443.5-1058.7-1443.5z"/>
		<path id="Path_201" class="st0" d="M-1051.7-1442h-14c-2.7,0.2-4.7,2.5-4.6,5.1v14.1c0,0.2,0.1,0.3,0.1,0.5h23
			c0-0.1,0.1-0.3,0.1-0.5v-14.1C-1047-1439.6-1049-1441.9-1051.7-1442z"/>
		<path id="Path_202" class="st0" d="M-1035.1-1439.3c3.9,0,7-3.1,7-7c0-3.9-3.1-7-7-7c-3.9,0-7,3.1-7,7c0,0,0,0,0,0
			C-1042.1-1442.4-1039-1439.3-1035.1-1439.3C-1035.1-1439.3-1035.1-1439.3-1035.1-1439.3z"/>
		<path id="Path_203" class="st0" d="M-1029.5-1438.1h-11.2c-2.1,0.1-3.8,2-3.7,4.1v11.3c0,0.1,0.1,0.2,0.1,0.4h18.4
			c0-0.1,0.1-0.2,0.1-0.4v-11.3C-1025.7-1436.2-1027.4-1438-1029.5-1438.1z"/>
		<path id="Path_204" class="st0" d="M-1082.2-1439.3c3.9,0,7-3.1,7-7c0-3.9-3.1-7-7-7c-3.9,0-7,3.1-7,7c0,0,0,0,0,0
			C-1089.2-1442.4-1086.1-1439.3-1082.2-1439.3C-1082.2-1439.3-1082.2-1439.3-1082.2-1439.3z"/>
		<path id="Path_205" class="st0" d="M-1076.6-1438.1h-11.3c-2.1,0.1-3.8,2-3.7,4.1v11.3c0,0.1,0.1,0.2,0.1,0.4h18.4
			c0-0.1,0.1-0.2,0.1-0.4v-11.3C-1072.8-1436.2-1074.5-1438-1076.6-1438.1z"/>
	</g>
</g>
</svg>
