<?xml version="1.0" encoding="utf-8"?>
<!-- Generator: Adobe Illustrator 22.0.1, SVG Export Plug-In . SVG Version: 6.00 Build 0)  -->
<svg version="1.1" id="Layer_1" xmlns="http://www.w3.org/2000/svg" xmlns:xlink="http://www.w3.org/1999/xlink" x="0px" y="0px"
	 viewBox="0 0 38.6 38.6" style="enable-background:new 0 0 38.6 38.6;" xml:space="preserve">
<style type="text/css">
	.st0{fill:#232323;}
</style>
<g id="blogger-letter-logotype" transform="translate(889.625 1460.966)">
	<path id="Blogger" class="st0" d="M-863.3-1422.4c6.7,0,12.2-5.4,12.2-12.2l0.1-9.9l-0.1-0.5l-0.3-0.7l-0.5-0.4
		c-0.7-0.6-4.3,0-5.3-0.8c-0.7-0.6-0.8-1.8-1-3.3c-0.4-3-0.6-3.1-1.1-4.1c-1.7-3.6-6.3-6.3-9.4-6.6h-8.6c-6.7,0-12.2,5.5-12.2,12.2
		v14.2c0,6.7,5.5,12.2,12.2,12.2H-863.3z M-877.2-1451h6.8c1.3,0,2.3,1,2.3,2.3c0,1.3-1,2.3-2.3,2.3c0,0,0,0,0,0h-6.8
		c-1.3,0-2.3-1-2.3-2.3S-878.5-1451-877.2-1451C-877.2-1451-877.2-1451-877.2-1451L-877.2-1451z M-879.6-1434.7
		c0-1.3,1.1-2.3,2.3-2.3h13.8c1.3,0,2.3,1,2.3,2.3c0,1.3-1,2.3-2.3,2.3c0,0,0,0,0,0h-13.8C-878.5-1432.4-879.6-1433.4-879.6-1434.7z
		"/>
</g>
</svg>
