<?xml version="1.0" encoding="utf-8"?>
<!-- Generator: Adobe Illustrator 22.0.1, SVG Export Plug-In . SVG Version: 6.00 Build 0)  -->
<svg version="1.1" id="Layer_1" xmlns="http://www.w3.org/2000/svg" xmlns:xlink="http://www.w3.org/1999/xlink" x="0px" y="0px"
	 viewBox="0 0 33.7 39.2" style="enable-background:new 0 0 33.7 39.2;" xml:space="preserve">
<style type="text/css">
	.st0{fill:#232323;}
</style>
<g id="shopping-bag" transform="translate(206.191 1460.385)">
	<g id="Group_25" transform="translate(0)">
		<path id="Path_197" class="st0" d="M-174.7-1449.7c0-0.2-0.1-0.3-0.3-0.3h-5.5v-1.5c0-4.9-4-8.9-8.9-8.9c-4.9,0-8.9,4-8.9,8.9v1.5
			h-5.5c-0.2,0-0.3,0.1-0.3,0.3l-2.1,28.2c0,0.2,0.1,0.3,0.3,0.3c0,0,0,0,0,0h33.1c0.2,0,0.3-0.1,0.3-0.3c0,0,0,0,0,0L-174.7-1449.7
			z M-195.8-1451.5c0-3.5,2.9-6.4,6.4-6.4s6.4,2.9,6.4,6.4v1.5h-12.9V-1451.5z M-197-1441.4c-1.7,0-3.1-1.4-3.1-3.1
			c0-1.2,0.7-2.4,1.8-2.8v2.8c0,0.7,0.5,1.2,1.2,1.2s1.2-0.5,1.2-1.2v-2.8c1.1,0.5,1.9,1.6,1.8,2.8
			C-194-1442.8-195.3-1441.4-197-1441.4z M-181.7-1441.4c-1.7,0-3.1-1.4-3.1-3.1c0-1.2,0.7-2.4,1.8-2.8v2.8c0,0.7,0.5,1.2,1.2,1.2
			c0.7,0,1.2-0.5,1.2-1.2v-2.8c1.1,0.5,1.9,1.6,1.8,2.8C-178.7-1442.8-180-1441.4-181.7-1441.4L-181.7-1441.4z"/>
	</g>
</g>
</svg>
